<svg width="169" height="48" viewBox="0 0 169 48" fill="none" xmlns="http://www.w3.org/2000/svg">
<path d="M59.5507 18.7754C55.0945 18.7754 52.0762 21.2155 52.0762 26.3542V34.7787C52.0762 35.5804 52.7255 36.2298 53.5272 36.2298H54.7367C55.5384 36.2298 56.1877 35.5804 56.1877 34.7787V26.3542C56.1877 23.5984 57.5676 22.5933 59.5798 22.5933C61.592 22.5933 62.9719 23.5984 62.9719 26.3542C62.9719 26.4494 63.049 26.5265 63.1442 26.5265H66.9391C67.0023 26.5265 67.0544 26.4754 67.0544 26.4113C67.0544 21.2155 64.0641 18.7754 59.6089 18.7754H59.5517H59.5507Z" fill="#2D2D2B"></path>
<path d="M78.7551 18.7754C73.3789 18.7754 69.584 22.5643 69.584 27.732C69.584 32.8998 73.3789 36.6887 78.7551 36.6887C81.9427 36.6887 84.5532 35.374 86.1435 33.2165C86.7518 32.3908 86.0633 31.3496 85.0382 31.3496H83.511C83.0671 31.3496 82.6592 31.566 82.3245 31.8576C81.4718 32.6012 80.2853 32.9569 78.7831 32.9569C76.9864 32.9569 75.4763 32.2264 74.5964 30.8355C74.1004 30.0519 74.8039 29.167 75.7318 29.167H86.4611C87.2538 29.167 87.8961 28.5247 87.8961 27.732C87.8961 22.5643 84.1874 18.7754 78.7831 18.7754H78.7541H78.7551ZM74.0112 25.8952C73.9972 25.8952 73.9862 25.8812 73.9912 25.8672C74.6586 23.6455 76.4363 22.4791 78.7551 22.4791C80.3955 22.4791 81.7644 23.0493 82.6622 24.1786C83.2635 24.9362 82.56 25.8952 81.593 25.8952H74.0112Z" fill="#2D2D2B"></path>
<path d="M92.842 11.541C91.2607 11.541 90.1113 12.7185 90.1113 14.2968C90.1113 15.875 91.2617 17.0244 92.842 17.0244C94.4223 17.0244 95.5727 15.876 95.5727 14.2968C95.5727 12.7175 94.4223 11.541 92.842 11.541Z" fill="#2D2D2B"></path>
<path d="M93.432 19.2051H92.2225C91.4208 19.2051 90.7715 19.8544 90.7715 20.6561V34.7495C90.7715 35.5511 91.4208 36.2005 92.2225 36.2005H93.432C94.2337 36.2005 94.883 35.5511 94.883 34.7495V20.6561C94.883 19.8544 94.2337 19.2051 93.432 19.2051Z" fill="#2D2D2B"></path>
<path d="M101.711 11.7715H100.502C99.7001 11.7715 99.0508 12.4208 99.0508 13.2225V34.7794C99.0508 35.5811 99.7001 36.2304 100.502 36.2304H101.711C102.513 36.2304 103.162 35.5811 103.162 34.7794V13.2225C103.162 12.4208 102.513 11.7715 101.711 11.7715Z" fill="#2D2D2B"></path>
<path d="M115.237 32.8272C115.237 32.8352 115.229 32.8412 115.222 32.8412C112.24 32.8342 110.206 30.7118 110.206 27.7025C110.206 24.6932 112.247 22.5638 115.238 22.5638C117.166 22.5638 118.66 23.4497 119.492 24.8626C119.808 25.3987 120.341 25.8076 120.963 25.8076H122.404C123.311 25.8076 124.004 24.9758 123.679 24.1291C122.39 20.7741 119.29 18.7168 115.267 18.7168C109.861 18.7168 106.066 22.4486 106.066 27.8458C106.066 33.673 110.407 36.6301 114.547 36.6301C116.52 36.6301 118.278 35.9567 119.485 34.6109C119.788 34.2742 120.584 34.4816 120.584 34.9336C120.584 35.617 121.137 36.1702 121.82 36.1702H122.898C123.7 36.1702 124.35 35.5208 124.35 34.7191V30.1857C124.35 29.384 123.7 28.7347 122.898 28.7347H121.366C120.664 28.7347 120.084 29.2497 119.811 29.8981C119.072 31.6618 117.436 32.8061 115.251 32.8112C115.243 32.8112 115.237 32.8172 115.237 32.8252V32.8272Z" fill="#2D2D2B"></path>
<path d="M137.142 18.7761C135.315 18.7761 133.712 19.3543 132.515 20.4385C132.156 20.7632 131.449 20.5287 131.449 20.0457V12.2555C131.449 11.9879 131.233 11.7715 130.965 11.7715H127.822C127.555 11.7715 127.338 11.9879 127.338 12.2555V25.3548C127.338 25.6223 127.554 25.8388 127.822 25.8388H131.388C131.597 25.8388 131.779 25.7045 131.858 25.5121C132.591 23.7204 134.225 22.595 136.423 22.595C139.413 22.595 141.454 24.7195 141.454 27.7337C141.454 30.748 139.413 32.8724 136.423 32.8724C133.952 32.8724 132.147 31.4124 131.592 29.1928C131.535 28.9653 131.336 28.796 131.102 28.796H127.963C127.676 28.796 127.45 29.0465 127.495 29.3301C128.207 33.8445 131.635 36.6904 136.394 36.6904C141.799 36.6904 145.594 32.9586 145.594 27.5614C145.594 21.7342 141.253 18.7771 137.113 18.7771H137.141L137.142 18.7761Z" fill="#2D2D2B"></path>
<path d="M155.141 25.9804C153.301 25.7509 151.777 25.5214 151.777 24.2288C151.777 23.2237 152.668 22.3629 154.479 22.3629C155.404 22.3629 156.12 22.5994 156.584 22.9972C157.145 23.4782 157.74 24.1145 158.48 24.1145H159.756C160.579 24.1145 161.259 23.4151 160.993 22.6364C160.227 20.3877 157.896 18.7754 154.421 18.7754C150.224 18.7754 147.666 21.0431 147.666 24.5174C147.666 28.68 151.518 29.139 154.135 29.4837C155.975 29.7132 157.47 29.8855 157.47 31.2063C157.47 32.2394 156.579 33.1012 154.479 33.1012C153.274 33.1012 152.467 32.8547 151.988 32.4278C151.411 31.9138 150.826 31.2063 150.053 31.2063H148.798C147.976 31.2063 147.296 31.9027 147.553 32.6834C148.337 35.0633 150.826 36.6897 154.479 36.6897C158.85 36.6897 161.609 34.422 161.609 30.9768C161.609 26.728 157.441 26.2971 155.17 25.9814H155.142L155.141 25.9804Z" fill="#2D2D2B"></path>
<path d="M35.1874 12.4617C35.6774 9.6819 33.8216 7.03138 31.0418 6.54136C28.262 6.05134 25.6115 7.90721 25.1214 10.687C24.6314 13.4668 26.4873 16.1173 29.2671 16.6073C32.0469 17.0974 33.9027 19.7479 33.4127 22.5277C32.9227 25.3075 34.7786 27.958 37.5583 28.448C40.3381 28.938 42.9887 27.0822 43.4787 24.3024C43.9687 21.5226 42.1128 18.8721 39.333 18.382C36.5533 17.892 34.6974 15.2415 35.1874 12.4617Z" fill="#2D2D2B"></path>
<path d="M16.6073 25.4734C17.0974 22.6936 15.2415 20.0431 12.4617 19.5531C9.6819 19.0631 7.03138 20.9189 6.54136 23.6987C6.05134 26.4785 7.90721 29.129 10.687 29.6191C13.4668 30.1091 15.3227 32.7596 14.8326 35.5394C14.3426 38.3192 16.1985 40.9697 18.9783 41.4597C21.7581 41.9497 24.4086 40.0939 24.8986 37.3141C25.3886 34.5343 23.5328 31.8838 20.753 31.3937C17.9732 30.9037 16.1173 28.2532 16.6073 25.4734Z" fill="#2D2D2B"></path>
<path d="M34.1895 30.7976C31.4288 30.3105 29.5839 27.6911 30.0399 24.9323C30.0429 24.9173 30.0499 24.9043 30.0519 24.8892C30.2974 23.4974 29.9537 22.1375 29.2001 21.0653C28.4506 19.991 27.2901 19.2034 25.8982 18.9579C25.8832 18.9549 25.8682 18.9579 25.8542 18.9549C23.1054 18.4398 21.2746 15.8103 21.7616 13.0496C22.2516 10.2698 20.3958 7.61927 17.616 7.12925C14.8362 6.63923 12.1857 8.4951 11.6957 11.2749C11.2056 14.0547 13.0615 16.7052 15.8413 17.1952C18.602 17.6822 20.4469 20.3017 19.9909 23.0604C19.9879 23.0755 19.9819 23.0885 19.9789 23.1035C19.7334 24.4954 20.0771 25.8553 20.8297 26.9275C21.5792 28.0017 22.7397 28.7894 24.1316 29.0349C24.1466 29.0379 24.1616 29.0349 24.1767 29.0379C26.9254 29.553 28.7562 32.1824 28.2692 34.9432C27.7792 37.723 29.635 40.3735 32.4148 40.8635C35.1946 41.3535 37.8451 39.4977 38.3352 36.7179C38.8252 33.9381 36.9693 31.2876 34.1895 30.7976ZM25.0154 26.8574C23.4351 26.8574 22.1534 25.5757 22.1534 23.9954C22.1534 22.4151 23.4351 21.1334 25.0154 21.1334C26.5957 21.1334 27.8774 22.4151 27.8774 23.9954C27.8774 25.5757 26.5957 26.8574 25.0154 26.8574Z" fill="#2D2D2B"></path>
</svg>