<svg width="161" height="48" viewBox="0 0 161 48" fill="none" xmlns="http://www.w3.org/2000/svg">
<path d="M20.645 7.48438L37.1612 40.5166H31.9999L20.645 17.807L9.2902 40.5166H4.12891L20.645 7.48438Z" fill="#2D2D2B"></path>
<path opacity="0.7" d="M20.6458 18.8398L29.9361 37.4205H25.8071L20.6458 27.0979L15.4845 37.4205H11.3555L20.6458 18.8398Z" fill="#2D2D2B"></path>
<path opacity="0.5" d="M20.6456 29.1621L23.7424 35.3557H17.5488L20.6456 29.1621Z" fill="#2D2D2B"></path>
<path d="M53.1515 37.4335C51.7545 37.4335 50.5623 37.1927 49.5748 36.711C48.6113 36.2052 47.8767 35.5428 47.3709 34.7239C46.8892 33.9049 46.6483 33.0138 46.6483 32.0503C46.6483 30.1475 47.3348 28.6783 48.7077 27.6426C50.0806 26.6069 51.887 26.089 54.127 26.089C55.1386 26.089 56.0419 26.1733 56.8367 26.3419C57.6315 26.4865 58.2819 26.643 58.7877 26.8116V25.9806C58.7877 24.5837 58.4023 23.548 57.6315 22.8735C56.8849 22.1991 55.8853 21.8619 54.6328 21.8619C53.6935 21.8619 52.8625 22.0546 52.1399 22.44C51.4173 22.8254 50.9597 23.4998 50.767 24.4632H46.9373C47.0819 23.1626 47.5154 22.0908 48.238 21.2477C48.9847 20.3806 49.912 19.7303 51.0199 19.2968C52.1279 18.8632 53.3322 18.6465 54.6328 18.6465C57.2341 18.6465 59.2333 19.2968 60.6302 20.5974C62.0513 21.8981 62.7619 23.6925 62.7619 25.9806V30.6774C62.7619 31.5927 62.81 32.2551 62.9064 32.6645C63.0268 33.074 63.2074 33.3389 63.4483 33.4594C63.7133 33.5557 64.0625 33.6039 64.496 33.6039H64.6767V37H63.8096C62.6053 37 61.5937 36.8194 60.7748 36.4581C59.9799 36.0968 59.4259 35.3742 59.1128 34.2903C58.5348 35.1815 57.752 35.9282 56.7644 36.5303C55.7769 37.1325 54.5726 37.4335 53.1515 37.4335ZM53.9464 34.3265C54.8616 34.3265 55.6444 34.1097 56.2948 33.6761C56.9451 33.2185 57.4629 32.6284 57.8483 31.9058C58.2578 31.1591 58.5107 30.3643 58.607 29.5213C58.0771 29.3768 57.4509 29.2323 56.7283 29.0877C56.0057 28.9432 55.2711 28.871 54.5244 28.871C53.2479 28.871 52.2844 29.1359 51.6341 29.6658C50.9838 30.1957 50.6586 30.8942 50.6586 31.7613C50.6586 32.508 50.9477 33.1222 51.5257 33.6039C52.1038 34.0856 52.9107 34.3265 53.9464 34.3265ZM73.3508 37C72.2428 37 71.3035 36.8675 70.5327 36.6026C69.7619 36.3376 69.1839 35.8318 68.7985 35.0852C68.4131 34.3385 68.2204 33.2546 68.2204 31.8335V22.44H65.1495V19.08H68.2204V14.4916H72.1946V19.08H76.9998V22.44H72.1946V31.2916C72.1946 31.9901 72.2549 32.508 72.3753 32.8452C72.5198 33.1583 72.7607 33.363 73.0979 33.4594C73.4592 33.5557 73.977 33.6039 74.6514 33.6039H76.8192V37H73.3508ZM79.4374 37V10.9871H83.4116V21.9342C84.0137 20.9226 84.8447 20.1277 85.9045 19.5497C86.9883 18.9475 88.1806 18.6465 89.4812 18.6465C91.6249 18.6465 93.3109 19.3329 94.5393 20.7058C95.7918 22.0546 96.418 24.0658 96.418 26.7394V37H92.48V27.1368C92.48 25.4508 92.1428 24.1862 91.4683 23.3432C90.7939 22.4761 89.7582 22.0426 88.3612 22.0426C86.9402 22.0426 85.76 22.5363 84.8206 23.5239C83.8813 24.5114 83.4116 25.9204 83.4116 27.751V37H79.4374ZM108.353 37.4335C106.57 37.4335 104.993 37.0482 103.62 36.2774C102.271 35.4826 101.199 34.3867 100.404 32.9897C99.6336 31.5927 99.2482 29.9669 99.2482 28.1123C99.2482 26.2576 99.6336 24.6198 100.404 23.1987C101.175 21.7535 102.247 20.6335 103.62 19.8387C104.993 19.0439 106.582 18.6465 108.389 18.6465C110.147 18.6465 111.677 19.0318 112.977 19.8026C114.302 20.5733 115.326 21.609 116.048 22.9097C116.771 24.2103 117.132 25.6675 117.132 27.2813C117.132 27.5222 117.132 27.7871 117.132 28.0761C117.132 28.3411 117.108 28.6422 117.06 28.9794H102.175V26.3058H113.158C113.086 24.957 112.592 23.8852 111.677 23.0903C110.785 22.2955 109.69 21.8981 108.389 21.8981C107.45 21.8981 106.582 22.1148 105.788 22.5484C104.993 22.9579 104.354 23.572 103.873 24.391C103.391 25.1858 103.15 26.2095 103.15 27.4619V28.4735C103.15 29.6778 103.391 30.7135 103.873 31.5806C104.354 32.4237 104.981 33.0619 105.751 33.4955C106.546 33.929 107.413 34.1458 108.353 34.1458C109.413 34.1458 110.304 33.9049 111.026 33.4232C111.749 32.9415 112.279 32.2912 112.616 31.4723H116.626C116.313 32.6043 115.771 33.628 115 34.5432C114.254 35.4344 113.314 36.1449 112.182 36.6748C111.074 37.1806 109.798 37.4335 108.353 37.4335ZM128.789 37.4335C127.006 37.4335 125.405 37.0482 123.984 36.2774C122.563 35.4826 121.431 34.3746 120.587 32.9535C119.769 31.5325 119.359 29.8946 119.359 28.04C119.359 26.1613 119.769 24.5234 120.587 23.1265C121.431 21.7054 122.563 20.6095 123.984 19.8387C125.429 19.0439 127.031 18.6465 128.789 18.6465C130.595 18.6465 132.197 19.0439 133.594 19.8387C135.015 20.6095 136.135 21.7054 136.954 23.1265C137.797 24.5234 138.218 26.1613 138.218 28.04C138.218 29.8946 137.797 31.5325 136.954 32.9535C136.135 34.3746 135.015 35.4826 133.594 36.2774C132.173 37.0482 130.571 37.4335 128.789 37.4335ZM128.753 34.0013C129.74 34.0013 130.631 33.7845 131.426 33.351C132.245 32.8933 132.895 32.231 133.377 31.3639C133.859 30.4727 134.1 29.3647 134.1 28.04C134.1 26.7153 133.859 25.6194 133.377 24.7523C132.895 23.8611 132.245 23.1987 131.426 22.7652C130.631 22.3075 129.764 22.0787 128.825 22.0787C127.861 22.0787 126.97 22.3075 126.151 22.7652C125.332 23.1987 124.682 23.8611 124.2 24.7523C123.719 25.6194 123.478 26.7153 123.478 28.04C123.478 29.3647 123.719 30.4727 124.2 31.3639C124.682 32.231 125.32 32.8933 126.115 33.351C126.934 33.7845 127.813 34.0013 128.753 34.0013ZM141.007 37V19.08H144.981V21.9342C145.583 20.9226 146.402 20.1277 147.438 19.5497C148.473 18.9475 149.653 18.6465 150.978 18.6465C153.17 18.6465 154.88 19.3329 156.109 20.7058C157.337 22.0546 157.951 24.0658 157.951 26.7394V37H153.977V27.1368C153.977 25.4508 153.628 24.1862 152.929 23.3432C152.255 22.4761 151.219 22.0426 149.822 22.0426C148.425 22.0426 147.269 22.5363 146.354 23.5239C145.438 24.5114 144.981 25.9204 144.981 27.751V37H141.007Z" fill="#2D2D2B"></path>
</svg>