<svg width="143" height="38" viewBox="0 0 143 38" fill="none" xmlns="http://www.w3.org/2000/svg">
<path d="M27.014 2.42484C24.2465 0.827632 21.2525 0 18 0C14.7475 0 11.7535 0.799544 8.98596 2.42484C6.21845 4.05014 4.05201 6.21845 2.42484 8.98595C0.799542 11.7535 0 14.7475 0 18C0 21.2525 0.799542 24.2465 2.42484 27.014C4.05014 29.7815 6.21845 31.948 8.98596 33.5752C11.7535 35.2023 14.7475 36 18 36C21.2525 36 24.2465 35.2005 27.014 33.5752C29.7815 31.9499 31.948 29.7815 33.5752 27.014C35.2005 24.2465 36 21.2525 36 18C36 14.7475 35.2005 11.7535 33.5752 8.98595C31.9499 6.21845 29.7815 4.05201 27.014 2.42484ZM19.1122 24.5031C17.0862 24.5031 15.4609 23.932 14.2064 22.7635C13.3507 21.964 12.8095 20.9941 12.523 19.8537H31.9199C31.7195 21.509 31.2346 23.0482 30.4931 24.5031H19.0823H19.1104H19.1122ZM12.5511 16.2024C12.8077 15.0902 13.3788 14.1203 14.2064 13.3207C15.4328 12.1504 17.0881 11.5512 19.1122 11.5512H30.5792C31.3207 13.0061 31.7776 14.5472 31.948 16.2006H12.5511V16.2024ZM5.8477 10.8397C7.10226 8.67138 8.7856 6.95995 10.9258 5.67731C13.0661 4.39468 15.4329 3.76553 18 3.76553C20.5671 3.76553 22.9339 4.3928 25.0742 5.67731C26.1583 6.33268 27.1564 7.10413 28.0121 7.98793H18.9418C16.8878 7.98793 15.0621 8.41673 13.4649 9.27245C11.8677 10.1282 10.6131 11.2985 9.72745 12.8095C9.10018 13.8656 8.70134 15.0059 8.52908 16.2324H4.0801C4.30854 14.3206 4.87964 12.5249 5.84958 10.8697V10.8416L5.8477 10.8397ZM25.0742 30.3227C22.9339 31.6072 20.5671 32.2345 18 32.2345C15.4329 32.2345 13.0661 31.6072 10.9258 30.3227C8.7856 29.0382 7.07417 27.3267 5.8477 25.1603C4.90586 23.535 4.30667 21.7655 4.07823 19.8837H8.5272C8.6976 21.1102 9.0983 22.2505 9.72558 23.3066C10.6094 24.7896 11.8658 25.9879 13.463 26.8436C15.0602 27.6994 16.8859 28.1282 18.94 28.1282H27.9259C27.0702 28.9839 26.1284 29.7254 25.0742 30.3526V30.3246V30.3227Z" fill="#2D2D2B"></path>
<path d="M65.0073 23.7927L61.5844 10.6143C61.356 9.70245 60.8991 8.98904 60.2437 8.44602C59.5884 7.90488 58.7888 7.64648 57.847 7.64648C56.9051 7.64648 56.1636 7.90301 55.4802 8.44602C54.8248 8.98717 54.3679 9.70058 54.1395 10.6143L50.7447 23.7066L46.5223 7.96106H41.6445L46.7507 25.2757C47.3499 27.416 48.6326 28.4702 50.6024 28.4702C52.5722 28.4702 52.4561 28.1855 53.0834 27.6144C53.6826 27.0433 54.1395 26.2738 54.396 25.2757L57.8189 12.0112L61.2137 25.2757C61.7548 27.416 63.0393 28.4702 65.0653 28.4702C67.0913 28.4702 68.2878 27.4141 68.917 25.2757L73.9951 7.96106H69.1454L64.9811 23.7927H65.0091H65.0073Z" fill="#2D2D2B"></path>
<path d="M90.999 8.84283C89.3438 7.90098 87.49 7.41602 85.4359 7.41602C83.3819 7.41602 81.5562 7.90098 79.9309 8.84283C78.2756 9.78468 76.993 11.0673 76.0512 12.6945C75.1093 14.3217 74.6543 16.0893 74.6543 18.0291C74.6543 19.969 75.1112 21.7666 76.0512 23.3638C76.993 24.9891 78.2756 26.2455 79.9309 27.2154C81.5862 28.1573 83.4118 28.6423 85.4359 28.6423C87.4601 28.6423 89.3438 28.1573 90.999 27.2154C92.6543 26.2736 93.9369 24.991 94.8788 23.3638C95.8206 21.7366 96.2756 19.969 96.2756 18.0291C96.2756 16.0893 95.8188 14.2917 94.8788 12.6945C93.9369 11.0692 92.6543 9.81277 90.999 8.84283ZM90.8286 21.3078C90.3156 22.3058 89.5741 23.0754 88.6603 23.6465C87.7484 24.2176 86.6643 24.5022 85.494 24.5022C84.3237 24.5022 83.2414 24.2176 82.3277 23.6465C81.4158 23.0754 80.6724 22.3059 80.1593 21.3359C79.6463 20.366 79.3898 19.2537 79.3898 18.0273C79.3898 16.8008 79.6463 15.7447 80.1593 14.7467C80.6724 13.7487 81.4139 12.9772 82.3277 12.408C83.2396 11.8369 84.2956 11.5523 85.494 11.5523C86.6924 11.5523 87.7466 11.8369 88.6603 12.408C89.5722 12.9791 90.3156 13.7487 90.8286 14.7186C91.3417 15.6886 91.5982 16.8008 91.5982 18.0273C91.5982 19.2537 91.3417 20.3098 90.8286 21.3078Z" fill="#2D2D2B"></path>
<path d="M105.582 9.12425C104.64 9.80957 103.985 10.7495 103.556 11.8917V7.95583H98.9629V28.0942H103.612V19.1382C103.612 16.7414 104.183 15.03 105.296 13.9758C106.436 12.9197 108.033 12.3786 110.145 12.3505H110.259V7.70117H110.117C108.378 7.70117 106.865 8.18614 105.582 9.12799V9.12425Z" fill="#2D2D2B"></path>
<path d="M118.352 23.4744C117.923 22.9614 117.696 22.1899 117.696 21.1076V0.255859H113.047V21.7068C113.047 23.9313 113.646 25.5865 114.816 26.6407C115.987 27.6968 117.754 28.2099 120.123 28.2099H120.58V24.274C119.524 24.274 118.754 23.9893 118.327 23.4744H118.355H118.352Z" fill="#2D2D2B"></path>
<path d="M138.011 0.255859V10.4964C137.583 9.86909 137.013 9.32608 136.328 8.84111C134.931 7.89926 133.304 7.41429 131.394 7.41429C129.484 7.41429 127.629 7.87117 126.059 8.78306C124.518 9.69495 123.322 10.9514 122.466 12.5767C121.61 14.202 121.182 16.0276 121.182 18.0256C121.182 20.0235 121.61 21.8772 122.436 23.4744C123.292 25.0997 124.49 26.3561 126.029 27.268C127.57 28.1799 129.366 28.6368 131.392 28.6368C133.418 28.6368 133.789 28.4084 134.873 27.9814C135.929 27.5526 136.813 26.9553 137.526 26.1558C137.727 25.9554 137.869 25.727 138.039 25.5004V28.0957H142.689V0.255859H138.011ZM137.354 21.3641C136.841 22.3622 136.1 23.1617 135.158 23.7309C134.216 24.3002 133.132 24.5867 131.935 24.5867C130.739 24.5867 129.653 24.302 128.741 23.7309C127.829 23.1598 127.115 22.3622 126.631 21.3641C126.146 20.3661 125.889 19.2539 125.889 18.0274C125.889 16.8009 126.146 15.6887 126.631 14.6907C127.115 13.6927 127.829 12.8931 128.741 12.3239C129.653 11.7547 130.709 11.4682 131.935 11.4682C133.162 11.4682 134.246 11.7528 135.158 12.3239C136.1 12.895 136.813 13.6927 137.354 14.6907C137.867 15.6887 138.124 16.8009 138.124 18.0274C138.124 19.2539 137.867 20.3661 137.354 21.3641Z" fill="#2D2D2B"></path>
</svg>